<?xml version="1.0" encoding="UTF-8"?>
<svg id="Layer_2" data-name="Layer 2" xmlns="http://www.w3.org/2000/svg" xmlns:xlink="http://www.w3.org/1999/xlink" viewBox="0 0 512.01 474.71">
  <defs>
    <style>
      .cls-1 {
        fill: url(#linear-gradient-2);
      }

      .cls-2 {
        fill: url(#linear-gradient-3);
      }

      .cls-3 {
        fill: url(#linear-gradient);
      }
    </style>
    <linearGradient id="linear-gradient" x1="198.21" y1="431.41" x2="286.81" y2="431.41" gradientUnits="userSpaceOnUse">
      <stop offset="0" stop-color="#ff4b2b"/>
      <stop offset="1" stop-color="#ff416c"/>
    </linearGradient>
    <linearGradient id="linear-gradient-2" x1="335.61" x2="424.21" xlink:href="#linear-gradient"/>
    <linearGradient id="linear-gradient-3" x1="0" y1="185.15" x2="512.01" y2="185.15" xlink:href="#linear-gradient"/>
  </defs>
  <g id="Layer_1-2" data-name="Layer 1">
    <g>
      <ellipse class="cls-3" cx="242.51" cy="431.41" rx="44.3" ry="43.3"/>
      <ellipse class="cls-1" cx="379.91" cy="431.41" rx="44.3" ry="43.3"/>
      <path class="cls-2" d="M466.91,131.71h-68.75c1.41-.56,2.94-.87,4.53-.87h8.58c7.67,0,13.15-6.05,13.15-13.73v-17.23c.11-7.68-5.36-13.73-13.04-13.73h-8.58c-6.99,0-12.86-6.04-12.86-13.22,0-3.61,1.52-6.89,4.23-9.32l5.53-5.42c5.47-5.43,5.47-14.3,0-19.72l-12.58-12.48c-2.49-2.49-6.16-3.96-9.88-3.96s-7.34,1.47-9.88,3.96l-5.3,5.31c-2.54,2.82-5.93,4.35-9.59,4.35-7.23,0-13.27-5.88-13.27-12.83v-8.64c0-7.63-6.15-14.18-13.82-14.18h-17.16c-7.67,0-13.77,6.5-13.77,14.18v8.59c0,6.94-6.04,12.82-13.26,12.82-3.61,0-6.94-1.53-9.37-4.18l-5.47-5.42c-2.48-2.55-6.15-3.96-9.88-3.96s-7.33,1.47-9.87,3.96l-12.7,12.42c-5.42,5.43-5.42,14.3,0,19.66l5.31,5.31c2.82,2.55,4.4,5.94,4.4,9.55,0,7.23-5.87,13.22-12.87,13.22h-8.58c-7.73,0-14.22,6.05-14.22,13.73v17.17c0,7.63,6.49,13.73,14.22,13.73h8.58c1.63,0,3.2.33,4.65.93h-75.28c-.7,0-1.4.2-2.1.2l-7.8-39c-1.4-10.3-8.5-16.5-21.8-18.3H16.51c-25.5.1-26.2,62.9,32.1,54.8l56.4-.5,10,46.9v.1l30.4,150.2c0,24.3,20.3,44.2,45.1,44.2h246c24.8,0,45.1-19.9,45.1-44.2l30.4-150.2c0-24.3-20.3-44.2-45.1-44.2ZM203.31,326.21l-1,.1c-8.3,1-16.1-4.7-17.2-12.6l-17.4-118.3c-1.2-8.1,4.9-15.6,13.5-16.6l1-.1c8.3-1,16.1,4.7,17.2,12.6l17.4,118.3c1.2,8.1-4.9,15.6-13.5,16.6ZM271.6,108.46c0-12.46,5.04-23.75,13.2-31.94,8.16-8.18,19.44-13.25,31.94-13.25,25,0,45.15,20.28,45.15,45.19,0,8.5-2.34,16.45-6.42,23.25h-77.45c-4.08-6.8-6.42-14.75-6.42-23.25ZM281.91,326.61l-1.1.1c-8.4.6-15.9-5.5-16.5-13.5l-9.86-118.39-.04-.51c-.7-8.1,5.8-15.3,14.4-15.8l1.1-.1c3.89-.28,7.6.88,10.51,3.01,3.36,2.45,5.67,6.2,5.99,10.49l9.9,118.9c.7,8.2-5.8,15.3-14.4,15.8ZM374.98,194.85l-1.97,117.56c-.1,8.1-7.2,14.6-15.7,14.5h-1.1c-8.5-.1-15.4-6.8-15.3-14.9l2-119.2c.05-4.24,2.02-8.04,5.1-10.68,2.81-2.41,6.55-3.87,10.6-3.82h1.1c8.5.1,15.4,6.8,15.3,14.9l-.03,1.64ZM463.71,196.01l-20.3,117.9c-1.3,7.8-9.2,13.3-17.5,12.2l-1-.1c-8.6-1.2-14.5-8.8-13.1-16.9l20.2-117.9c1.3-7.8,9.2-13.3,17.5-12.2l1,.1c8.7,1.2,14.6,8.8,13.2,16.9Z"/>
    </g>
  </g>
</svg>